<svg width="200" height="84" viewBox="0 0 200 84" fill="none" xmlns="http://www.w3.org/2000/svg">
<rect width="200" height="84" fill="white"/>
<g clip-path="url(#clip0)">
<path d="M66.3767 22.2164L63.5215 30.5892L66.5357 31.5921L69.3909 23.2193L66.3767 22.2164Z" fill="#D3CFB0"/>
<path fill-rule="evenodd" clip-rule="evenodd" d="M35.7092 18.6863L68.0118 29.5171L68.2308 28.8896C67.8714 28.7819 67.5377 28.604 67.2493 28.3664C66.9609 28.1288 66.7238 27.8364 66.552 27.5066C66.3803 27.1767 66.2773 26.8161 66.2494 26.4462C66.2214 26.0763 66.269 25.7047 66.3892 25.3533C66.5095 25.0019 66.7 24.678 66.9495 24.4007C67.1989 24.1234 67.5022 23.8985 67.8414 23.7393C68.1806 23.5801 68.5486 23.4898 68.9238 23.4738C69.299 23.4578 69.6736 23.5164 70.0254 23.6461L70.2407 23.0115L37.9453 12.1808C37.0719 11.8899 36.1173 11.9527 35.2906 12.3553C34.4639 12.758 33.8324 13.4677 33.5342 14.3292C33.2397 15.1919 33.3033 16.1348 33.7109 16.9514C34.1185 17.768 34.8371 18.3918 35.7092 18.6863Z" fill="#B36E49"/>
<path fill-rule="evenodd" clip-rule="evenodd" d="M68.2273 28.8896L35.9247 18.0588C35.5654 17.9511 35.2316 17.7731 34.9432 17.5356C34.6549 17.298 34.4178 17.0056 34.246 16.6757C34.0742 16.3459 33.9713 15.9853 33.9433 15.6154C33.9154 15.2455 33.9629 14.8739 34.0832 14.5225C34.2035 14.1711 34.394 13.8472 34.6434 13.5699C34.8929 13.2926 35.1962 13.0677 35.5353 12.9085C35.8745 12.7493 36.2426 12.659 36.6178 12.643C36.9929 12.627 37.3675 12.6856 37.7193 12.8153L70.0219 23.6461C69.6701 23.5163 69.2955 23.4577 68.9204 23.4737C68.5452 23.4897 68.1771 23.58 67.8379 23.7393C67.4988 23.8985 67.1955 24.1234 66.946 24.4007C66.6966 24.6779 66.5061 25.0019 66.3858 25.3533C66.2655 25.7046 66.218 26.0763 66.2459 26.4462C66.2739 26.8161 66.3768 27.1767 66.5486 27.5065C66.7204 27.8364 66.9575 28.1288 67.2458 28.3663C67.5342 28.6039 67.868 28.7818 68.2273 28.8896Z" fill="#FFF8D8"/>
<path fill-rule="evenodd" clip-rule="evenodd" d="M32.4193 17.5838L33.5355 14.3292C33.241 15.192 33.3046 16.1348 33.7122 16.9514C34.1198 17.768 34.8384 18.3918 35.7105 18.6863L68.0131 29.5171L55.3146 66.4658L23.012 55.6351C22.141 55.339 21.4237 54.7149 21.0163 53.8988C20.6089 53.0828 20.5445 52.1407 20.837 51.2779L32.4193 17.5838Z" fill="#DA955E"/>
<path d="M37.7441 16.4563L40.1812 17.2717L41.1503 14.4497L39.5782 15.0701L38.7132 13.6307L37.7441 16.4563Z" fill="#D34B58"/>
<path d="M70.0621 42.4893C70.739 42.6574 71.3838 42.9328 71.9715 43.3047C74.3691 44.8752 76.6913 46.5486 78.9704 48.268C79.7852 48.8849 80.643 49.36 81.7197 49.2501C81.8585 49.2455 81.9972 49.2586 82.1325 49.2891C84.3865 49.6082 86.6405 49.9379 88.8981 50.2428C90.262 50.4271 91.633 50.5973 93.0005 50.7675V62.1123C90.4881 61.5415 87.9936 61.0026 85.4956 60.4283C83.8077 60.0477 82.0501 60.0928 80.3846 60.5595C79.0867 60.9239 77.8693 61.5251 76.7954 62.3321C74.9873 63.7151 72.9338 64.7527 70.7404 65.3917C69.2135 65.8112 67.8121 66.5897 66.656 67.6606C65.6905 68.5292 64.8614 69.5396 63.8851 70.3976C63.2981 70.9444 62.6375 71.4085 61.9218 71.7767C61.5938 71.9567 61.2192 72.0369 60.8451 72.0071C60.6692 72.0036 60.4973 71.9543 60.3469 71.864C60.1965 71.7738 60.073 71.6459 59.9888 71.4932C59.9046 71.3406 59.8628 71.1687 59.8676 70.995C59.8723 70.8212 59.9235 70.6518 60.016 70.5039C60.0626 70.4188 60.1129 70.3373 60.1631 70.2558C60.9025 68.9688 62.1121 68.1286 63.1816 67.1537C63.8745 66.4796 64.5029 65.7438 65.0588 64.9556C65.1557 64.828 65.2562 64.6578 65.1234 64.5018C64.9906 64.3458 64.8434 64.4096 64.6963 64.4557C64.4003 64.5299 64.1101 64.6246 63.8277 64.7393C62.3705 65.3917 60.9563 66.1574 59.5817 66.9338C58.3004 67.6429 57.0693 68.4406 55.6336 68.8979C55.2255 69.0427 54.7827 69.0625 54.363 68.9546C53.778 68.7916 53.5088 68.4016 53.6954 67.8379C53.8692 67.2334 54.1944 66.682 54.6411 66.2345C55.0878 65.7871 55.6414 65.4582 56.2509 65.2782C56.5415 65.1925 56.821 65.0735 57.0836 64.9237C58.1604 64.2891 59.1905 63.5871 60.2206 62.8852C60.8164 62.481 61.3942 62.052 61.9685 61.6195C62.13 61.4954 62.2951 61.3004 62.1731 61.0842C62.051 60.8679 61.7819 60.9424 61.5665 60.9814C61.4712 61.0032 61.3811 61.0429 61.3009 61.0983C61.0275 61.2621 60.7295 61.3818 60.418 61.4529C58.9823 61.8641 57.5466 62.2683 56.1361 62.6937C54.8476 63.0766 53.5052 63.2432 52.2275 63.6828C51.8785 63.7677 51.5101 63.7229 51.1924 63.5568C50.8747 63.3908 50.6299 63.1151 50.5047 62.7823C50.3767 62.4728 50.3702 62.1273 50.4863 61.8133C50.6025 61.4993 50.833 61.2393 51.1328 61.0842C51.3982 60.9338 51.674 60.8023 51.9583 60.6906C53.3473 60.1199 54.765 59.6271 56.1827 59.1485C57.8086 58.5848 59.4489 58.0494 60.9205 57.1347C61.0856 57.0319 61.3727 56.9433 61.2973 56.7093C61.222 56.4753 60.9384 56.5888 60.7661 56.5852C58.7849 56.5852 56.8467 56.9788 54.8871 57.2021C53.6718 57.3487 52.4417 57.3248 51.2333 57.1312C50.9917 57.1014 50.7664 56.9952 50.5911 56.8284C50.4158 56.6616 50.2998 56.4432 50.2606 56.2059C50.2083 55.9906 50.2201 55.7649 50.2946 55.5561C50.3691 55.3473 50.5031 55.1642 50.6805 55.0289C51.0622 54.7065 51.5069 54.4652 51.987 54.3198C52.8951 53.9653 53.8534 53.9121 54.7937 53.7419C56.4483 53.4477 58.0922 53.0896 59.7324 52.728C62.0234 52.2757 64.2123 51.4169 66.193 50.1931C66.7235 49.8793 67.1164 49.3812 67.2948 48.7963C67.6717 47.5023 67.2948 46.3855 66.4657 45.3857C66.0355 44.9183 65.5739 44.48 65.0839 44.074C63.7931 42.9619 62.6509 41.6919 61.685 40.2948C61.4642 39.958 61.3401 39.5683 61.326 39.1674C61.3092 39.0219 61.3251 38.8745 61.3727 38.7359C61.4202 38.5972 61.4983 38.4706 61.6012 38.3653C61.7041 38.2599 61.8293 38.1783 61.9679 38.1264C62.1065 38.0744 62.255 38.0534 62.4028 38.0648C62.8007 38.0614 63.1944 38.1451 63.5556 38.31C63.9168 38.4749 64.2365 38.7169 64.4917 39.0185C64.5958 39.1284 64.6747 39.2631 64.8255 39.3234C66.0099 39.8161 66.9503 40.667 67.966 41.408C68.5879 41.8981 69.2996 42.2652 70.0621 42.4893Z" fill="#D34B58"/>
<path fill-rule="evenodd" clip-rule="evenodd" d="M46.1477 47.1653L46.5856 45.8855C46.4717 46.2283 46.4994 46.6016 46.6627 46.9243C46.8261 47.2469 47.1118 47.4928 47.4577 47.6085L60.3285 51.9231L55.3324 66.4586L42.4616 62.1405C42.1153 62.0264 41.8291 61.7813 41.6655 61.4589C41.502 61.1366 41.4747 60.7633 41.5894 60.4211L46.1477 47.1653Z" fill="#DA955E"/>
<path d="M24.9348 26.6985C24.2593 26.8673 23.6157 27.1427 23.029 27.5139C20.6314 29.0845 18.3092 30.7579 16.0301 32.4773C15.2154 33.0942 14.3575 33.5692 13.2808 33.4558C13.141 33.4531 13.0013 33.4662 12.8644 33.4948C10.6104 33.8139 8.35643 34.1436 6.10243 34.4485C4.73495 34.6364 3.36748 34.803 2 34.9767V46.3216C4.51242 45.7543 7.00331 45.2119 9.50497 44.6376C11.1916 44.2568 12.9481 44.3019 14.6124 44.7687C15.9095 45.135 17.1266 45.7361 18.2015 46.5414C20.0083 47.9243 22.0606 48.9619 24.2529 49.6009C25.7792 50.0159 27.1824 50.7868 28.3446 51.8486C29.3101 52.7172 30.1392 53.7276 31.1154 54.5856C31.7016 55.1343 32.3624 55.5996 33.0787 55.9682C33.4078 56.1455 33.7816 56.2255 34.1554 56.1987C34.3314 56.1952 34.5032 56.1458 34.6536 56.0556C34.804 55.9653 34.9276 55.8374 35.0117 55.6848C35.0959 55.5322 35.1378 55.3603 35.133 55.1865C35.1282 55.0128 35.077 54.8433 34.9845 54.6955C34.9379 54.6104 34.8876 54.5288 34.8374 54.4437C34.098 53.1568 32.8885 52.3166 31.8189 51.3416C31.126 50.6676 30.4976 49.9318 29.9417 49.1436C29.8448 49.016 29.7408 48.8493 29.8736 48.6898C30.0064 48.5303 30.1571 48.5976 30.3043 48.6437C30.5995 48.72 30.8897 48.8148 31.1728 48.9273C32.63 49.5797 34.0442 50.3454 35.4188 51.1218C36.7002 51.8309 37.9313 52.6286 39.3669 53.0859C39.7744 53.2337 40.2182 53.2535 40.6375 53.1426C41.2225 52.9831 41.4917 52.5896 41.3051 52.0259C41.1314 51.4214 40.8061 50.8699 40.3594 50.4225C39.9128 49.9751 39.3591 49.6462 38.7496 49.4662C38.4578 49.3805 38.1772 49.2615 37.9133 49.1117C36.8366 48.4806 35.8101 47.7751 34.7764 47.0732C34.1842 46.669 33.6063 46.24 33.032 45.8075C32.8705 45.6834 32.7018 45.492 32.8274 45.2757C32.9531 45.0594 33.2187 45.1303 33.4304 45.1729C33.5262 45.1913 33.6168 45.23 33.696 45.2863C33.9698 45.4494 34.2677 45.569 34.579 45.6409C36.0146 46.0486 37.4503 46.4527 38.8609 46.8782C40.1494 47.261 41.4917 47.4312 42.7731 47.8673C43.1221 47.953 43.4909 47.9085 43.8087 47.7424C44.1266 47.5762 44.3713 47.3 44.4959 46.9668C44.6235 46.6569 44.6296 46.311 44.5127 45.997C44.3959 45.6829 44.1646 45.4232 43.8642 45.2686C43.5995 45.1169 43.3235 44.9854 43.0387 44.8751C41.6532 44.3043 40.2355 43.8115 38.8178 43.3329C37.1739 42.7763 35.5445 42.241 34.0729 41.3227C33.9078 41.2199 33.6242 41.1313 33.714 40.8973C33.8037 40.6633 34.0729 40.7768 34.2416 40.7768C36.2228 40.7768 38.1646 41.1667 40.1207 41.3901C41.3358 41.5361 42.5657 41.5135 43.7744 41.3227C44.0167 41.2933 44.2427 41.1867 44.4182 41.0191C44.5937 40.8516 44.7092 40.6321 44.7471 40.3939C44.8012 40.1789 44.7906 39.9531 44.7166 39.744C44.6427 39.535 44.5086 39.3517 44.3308 39.2168C43.9478 38.8944 43.5019 38.6531 43.0207 38.5078C42.1162 38.1533 41.1579 38.1001 40.214 37.9335C38.5594 37.6357 36.9191 37.2776 35.2789 36.916C32.9817 36.4676 30.7864 35.6099 28.8004 34.3847C28.2703 34.0694 27.8767 33.572 27.6949 32.9878C27.336 31.6903 27.6949 30.577 28.5276 29.5737C28.9587 29.1072 29.4203 28.669 29.9094 28.262C31.2001 27.1508 32.3412 25.8806 33.3048 24.4827C33.5271 24.1467 33.6513 23.7566 33.6637 23.3553C33.6806 23.2099 33.6647 23.0625 33.6171 22.9239C33.5695 22.7852 33.4915 22.6586 33.3886 22.5533C33.2857 22.4479 33.1604 22.3663 33.0218 22.3143C32.8833 22.2624 32.7348 22.2414 32.587 22.2528C32.1887 22.2495 31.7948 22.3337 31.4335 22.4993C31.0722 22.6648 30.7527 22.9076 30.4981 23.21C30.4128 23.335 30.2999 23.4392 30.1679 23.5149C28.9834 24.0041 28.0431 24.8585 27.0273 25.596C26.4096 26.0951 25.6986 26.4697 24.9348 26.6985Z" fill="#4E3157"/>
<path d="M37.8018 20.7781C37.6675 20.7214 37.5281 20.6775 37.3854 20.6469C36.0287 20.2746 31.8294 19.2961 31.8294 19.2961L27.8418 30.6091C27.8418 30.6091 35.7093 30.1553 35.9821 30.1553C36.2548 30.1553 37.8018 20.7781 37.8018 20.7781Z" fill="#DA955E"/>
</g>
<path d="M107.22 20.9951V26.8667H113.76C114.929 26.8667 115.874 26.6499 116.597 26.2163C117.331 25.7707 117.699 24.9878 117.699 23.8677C117.699 22.6271 117.217 21.8081 116.253 21.4106C115.422 21.1336 114.362 20.9951 113.074 20.9951H107.22ZM107.22 31.2749V38.375H113.76C114.929 38.375 115.838 38.2184 116.488 37.9053C117.669 37.3271 118.259 36.2191 118.259 34.5811C118.259 33.196 117.687 32.2445 116.542 31.7266C115.904 31.4375 115.007 31.2869 113.851 31.2749H107.22ZM114.844 16.3701C118.108 16.4183 120.421 17.3638 121.782 19.2065C122.601 20.3387 123.01 21.6937 123.01 23.2715C123.01 24.8975 122.601 26.2043 121.782 27.1919C121.324 27.7459 120.65 28.2518 119.758 28.7095C121.119 29.2033 122.143 29.9862 122.83 31.0581C123.528 32.13 123.877 33.4308 123.877 34.9604C123.877 36.5382 123.48 37.9535 122.685 39.2061C122.179 40.0371 121.547 40.7357 120.788 41.3018C119.933 41.9521 118.921 42.3978 117.753 42.6387C116.597 42.8796 115.338 43 113.977 43H101.909V16.3701H114.844ZM136.976 39.3687C138.481 39.3687 139.637 38.8327 140.444 37.7607C141.251 36.6888 141.655 35.1652 141.655 33.1899C141.655 31.2147 141.251 29.6971 140.444 28.6372C139.637 27.5653 138.481 27.0293 136.976 27.0293C135.47 27.0293 134.308 27.5653 133.489 28.6372C132.682 29.6971 132.278 31.2147 132.278 33.1899C132.278 35.1652 132.682 36.6888 133.489 37.7607C134.308 38.8327 135.47 39.3687 136.976 39.3687ZM147.057 33.1899C147.057 36.0806 146.226 38.5557 144.563 40.6152C142.901 42.6628 140.378 43.6865 136.994 43.6865C133.609 43.6865 131.086 42.6628 129.424 40.6152C127.762 38.5557 126.931 36.0806 126.931 33.1899C126.931 30.3475 127.762 27.8844 129.424 25.8008C131.086 23.7171 133.609 22.6753 136.994 22.6753C140.378 22.6753 142.901 23.7171 144.563 25.8008C146.226 27.8844 147.057 30.3475 147.057 33.1899ZM159.595 39.3687C161.1 39.3687 162.257 38.8327 163.063 37.7607C163.87 36.6888 164.274 35.1652 164.274 33.1899C164.274 31.2147 163.87 29.6971 163.063 28.6372C162.257 27.5653 161.1 27.0293 159.595 27.0293C158.089 27.0293 156.927 27.5653 156.108 28.6372C155.301 29.6971 154.897 31.2147 154.897 33.1899C154.897 35.1652 155.301 36.6888 156.108 37.7607C156.927 38.8327 158.089 39.3687 159.595 39.3687ZM169.676 33.1899C169.676 36.0806 168.845 38.5557 167.183 40.6152C165.521 42.6628 162.997 43.6865 159.613 43.6865C156.228 43.6865 153.705 42.6628 152.043 40.6152C150.381 38.5557 149.55 36.0806 149.55 33.1899C149.55 30.3475 150.381 27.8844 152.043 25.8008C153.705 23.7171 156.228 22.6753 159.613 22.6753C162.997 22.6753 165.521 23.7171 167.183 25.8008C168.845 27.8844 169.676 30.3475 169.676 33.1899ZM173.325 16.4604H178.384V30.8052L184.797 23.3979H191.175L184.292 30.9316L191.446 43H185.231L180.516 34.5811L178.384 36.8032V43H173.325V16.4604Z" fill="#3F2A49"/>
<path d="M102.709 52.6543H113.168V54.4121H104.604V58.7676H112.523V60.4277H104.604V65.291H113.314V67H102.709V52.6543ZM115.133 56.541H117.408L119.811 60.2227L122.242 56.541L124.381 56.5898L120.855 61.6387L124.537 67H122.291L119.693 63.0742L117.174 67H114.947L118.629 61.6387L115.133 56.541ZM130.662 56.2383C131.84 56.2383 132.798 56.5247 133.533 57.0977C134.275 57.6706 134.721 58.6569 134.871 60.0566H133.162C133.058 59.4121 132.82 58.8783 132.449 58.4551C132.078 58.0254 131.482 57.8105 130.662 57.8105C129.542 57.8105 128.742 58.3574 128.26 59.4512C127.947 60.1608 127.791 61.0365 127.791 62.0781C127.791 63.1263 128.012 64.0085 128.455 64.7246C128.898 65.4408 129.594 65.7988 130.545 65.7988C131.274 65.7988 131.85 65.5775 132.273 65.1348C132.703 64.6855 132.999 64.0736 133.162 63.2988H134.871C134.676 64.6855 134.188 65.7012 133.406 66.3457C132.625 66.9837 131.626 67.3027 130.408 67.3027C129.041 67.3027 127.951 66.8047 127.137 65.8086C126.323 64.806 125.916 63.556 125.916 62.0586C125.916 60.2227 126.362 58.7936 127.254 57.7715C128.146 56.7493 129.282 56.2383 130.662 56.2383ZM137.129 52.6055H138.887V57.957C139.303 57.4297 139.678 57.0586 140.01 56.8438C140.576 56.4727 141.283 56.2871 142.129 56.2871C143.646 56.2871 144.674 56.8177 145.215 57.8789C145.508 58.4583 145.654 59.2624 145.654 60.291V67H143.848V60.4082C143.848 59.64 143.75 59.0768 143.555 58.7188C143.236 58.1458 142.637 57.8594 141.758 57.8594C141.029 57.8594 140.368 58.11 139.775 58.6113C139.183 59.1126 138.887 60.0599 138.887 61.4531V67H137.129V52.6055ZM150.109 64.2168C150.109 64.7246 150.295 65.125 150.666 65.418C151.037 65.7109 151.477 65.8574 151.984 65.8574C152.603 65.8574 153.202 65.7142 153.781 65.4277C154.758 64.9525 155.246 64.1745 155.246 63.0938V61.6777C155.031 61.8145 154.755 61.9284 154.416 62.0195C154.077 62.1107 153.745 62.1758 153.42 62.2148L152.355 62.3516C151.717 62.4362 151.239 62.5697 150.92 62.752C150.38 63.0579 150.109 63.5462 150.109 64.2168ZM154.367 60.6621C154.771 60.61 155.041 60.4408 155.178 60.1543C155.256 59.998 155.295 59.7734 155.295 59.4805C155.295 58.8815 155.08 58.4486 154.65 58.1816C154.227 57.9082 153.618 57.7715 152.824 57.7715C151.906 57.7715 151.255 58.0189 150.871 58.5137C150.656 58.7871 150.516 59.194 150.451 59.7344H148.811C148.843 58.4453 149.26 57.5501 150.061 57.0488C150.868 56.541 151.802 56.2871 152.863 56.2871C154.094 56.2871 155.093 56.5215 155.861 56.9902C156.623 57.459 157.004 58.1882 157.004 59.1777V65.2031C157.004 65.3854 157.04 65.5319 157.111 65.6426C157.189 65.7533 157.349 65.8086 157.59 65.8086C157.668 65.8086 157.756 65.8053 157.854 65.7988C157.951 65.7858 158.055 65.7695 158.166 65.75V67.0488C157.893 67.127 157.684 67.1758 157.541 67.1953C157.398 67.2148 157.202 67.2246 156.955 67.2246C156.35 67.2246 155.91 67.0098 155.637 66.5801C155.493 66.3522 155.393 66.0299 155.334 65.6133C154.976 66.082 154.462 66.4889 153.791 66.834C153.12 67.179 152.382 67.3516 151.574 67.3516C150.604 67.3516 149.81 67.0586 149.191 66.4727C148.579 65.8802 148.273 65.1413 148.273 64.2559C148.273 63.2858 148.576 62.5339 149.182 62C149.787 61.4661 150.581 61.1374 151.564 61.0137L154.367 60.6621ZM160.395 56.541H162.064V58.0254C162.559 57.4134 163.083 56.974 163.637 56.707C164.19 56.4401 164.805 56.3066 165.482 56.3066C166.967 56.3066 167.969 56.8242 168.49 57.8594C168.777 58.4258 168.92 59.2363 168.92 60.291V67H167.133V60.4082C167.133 59.7702 167.038 59.2559 166.85 58.8652C166.537 58.2142 165.971 57.8887 165.15 57.8887C164.734 57.8887 164.392 57.931 164.125 58.0156C163.643 58.1589 163.22 58.4453 162.855 58.875C162.562 59.2201 162.37 59.5781 162.279 59.9492C162.195 60.3138 162.152 60.8379 162.152 61.5215V67H160.395V56.541ZM175.719 56.3555C176.539 56.3555 177.255 56.5573 177.867 56.9609C178.199 57.1888 178.538 57.5208 178.883 57.957V56.6387H180.504V66.1504C180.504 67.4785 180.309 68.5267 179.918 69.2949C179.189 70.7142 177.812 71.4238 175.787 71.4238C174.661 71.4238 173.714 71.1699 172.945 70.6621C172.177 70.1608 171.747 69.373 171.656 68.2988H173.443C173.528 68.7676 173.697 69.1289 173.951 69.3828C174.348 69.7734 174.973 69.9688 175.826 69.9688C177.174 69.9688 178.056 69.4935 178.473 68.543C178.72 67.9831 178.834 66.9837 178.814 65.5449C178.463 66.0788 178.04 66.4759 177.545 66.7363C177.05 66.9967 176.396 67.127 175.582 67.127C174.449 67.127 173.456 66.7266 172.604 65.9258C171.757 65.1185 171.334 63.7871 171.334 61.9316C171.334 60.1803 171.76 58.8132 172.613 57.8301C173.473 56.847 174.508 56.3555 175.719 56.3555ZM178.883 61.7266C178.883 60.431 178.616 59.4707 178.082 58.8457C177.548 58.2207 176.868 57.9082 176.041 57.9082C174.804 57.9082 173.958 58.4876 173.502 59.6465C173.261 60.265 173.141 61.0755 173.141 62.0781C173.141 63.2565 173.378 64.1549 173.854 64.7734C174.335 65.3854 174.98 65.6914 175.787 65.6914C177.05 65.6914 177.939 65.1217 178.453 63.9824C178.74 63.3379 178.883 62.5859 178.883 61.7266ZM188.016 56.3066C188.758 56.3066 189.477 56.4824 190.174 56.834C190.87 57.179 191.401 57.6283 191.766 58.1816C192.117 58.709 192.352 59.3242 192.469 60.0273C192.573 60.5091 192.625 61.2773 192.625 62.332H184.959C184.992 63.3932 185.242 64.2461 185.711 64.8906C186.18 65.5286 186.906 65.8477 187.889 65.8477C188.807 65.8477 189.539 65.5449 190.086 64.9395C190.398 64.5879 190.62 64.181 190.75 63.7188H192.479C192.433 64.1029 192.28 64.5326 192.02 65.0078C191.766 65.4766 191.479 65.8607 191.16 66.1602C190.626 66.681 189.965 67.0326 189.178 67.2148C188.755 67.319 188.276 67.3711 187.742 67.3711C186.44 67.3711 185.337 66.8991 184.432 65.9551C183.527 65.0046 183.074 63.6764 183.074 61.9707C183.074 60.291 183.53 58.9271 184.441 57.8789C185.353 56.8307 186.544 56.3066 188.016 56.3066ZM190.818 60.9355C190.747 60.1738 190.581 59.5651 190.32 59.1094C189.839 58.263 189.035 57.8398 187.908 57.8398C187.101 57.8398 186.424 58.1328 185.877 58.7188C185.33 59.2982 185.04 60.0371 185.008 60.9355H190.818Z" fill="#3F2A49"/>
<defs>
<clipPath id="clip0">
<rect width="91" height="60" fill="white" transform="translate(2 12)"/>
</clipPath>
</defs>
</svg>
