<svg width="12" height="12" viewBox="0 0 12 12" fill="none" xmlns="http://www.w3.org/2000/svg">
<g clip-path="url(#clip0)">
<path d="M1.13478 9.59998H1.19965L4.32937 8.9189C4.39033 8.90875 4.44682 8.88051 4.49151 8.83783L9.79415 3.53516C10.1815 3.14864 10.3976 2.6229 10.3942 2.07572C10.3949 1.52429 10.1795 0.994556 9.79415 0.600055C9.40766 0.212693 8.88193 -0.00342915 8.33472 7.82182e-05C7.78403 -0.00479485 7.25582 0.218218 6.87528 0.616288L1.58881 5.91893C1.54219 5.95645 1.50821 6.00739 1.49151 6.06487L0.810458 9.19459C0.791865 9.30695 0.827994 9.42142 0.907764 9.50271C0.967637 9.56379 1.04924 9.59877 1.13478 9.59998ZM8.33472 0.648723C9.11388 0.648661 9.74555 1.28027 9.74561 2.05943C9.74561 2.06486 9.74558 2.07029 9.74552 2.07572C9.75082 2.44692 9.60438 2.8042 9.34012 3.06489L7.34555 1.05409C7.60832 0.79296 7.96424 0.647078 8.33472 0.648723ZM6.89148 1.52439L8.88606 3.51896L4.26447 8.12431L2.26989 6.14594L6.89148 1.52439ZM2.01044 6.79462L3.61582 8.4L1.55638 8.85406L2.01044 6.79462Z" fill="#2961B5"/>
<path d="M11.4323 11.3513H0.567487C0.388363 11.3513 0.243164 11.4965 0.243164 11.6756C0.243164 11.8548 0.388363 12 0.567487 12H11.4323C11.6114 12 11.7566 11.8548 11.7566 11.6756C11.7566 11.4965 11.6114 11.3513 11.4323 11.3513Z" fill="#2961B5"/>
</g>
<defs>
<clipPath id="clip0">
<rect width="12" height="12" fill="white"/>
</clipPath>
</defs>
</svg>
