<svg width="24" height="24" viewBox="0 0 24 24" fill="none" xmlns="http://www.w3.org/2000/svg">
<path d="M7.17579 8.59432L7.10431 8.5215L7.03295 8.59442L6.30903 9.33412C7.45655 6.25401 10.7599 4.57065 13.8869 5.54575C15.1308 5.93366 16.2236 6.71285 17.0094 7.77277L17.0702 7.85479L17.151 7.79228L18.0612 7.08755L18.1386 7.02764L18.0804 6.94898C15.5751 3.56476 10.8577 2.89558 7.54446 5.45637C6.21821 6.4814 5.26362 7.9253 4.82691 9.56049L3.87936 8.59435L3.80792 8.5215L3.73652 8.5944L2.92856 9.4194L2.86006 9.48935L2.92853 9.55931L5.38558 12.0699L5.45705 12.143L5.52852 12.0699L7.98557 9.55931L8.05412 9.48927L7.98547 9.41933L7.17579 8.59432Z" fill="#DC975E" stroke="#DC975E" stroke-width="0.2"/>
<path d="M18.6325 10.9303L18.5608 10.8566L18.4891 10.9303L16.0499 13.4372L15.9821 13.5069L16.0499 13.5767L16.852 14.401L16.9237 14.4747L16.9953 14.401L17.7259 13.6506C16.5951 16.7328 13.3178 18.4248 10.2089 17.4598C8.91826 17.0591 7.79134 16.2327 7.00254 15.1076L6.94366 15.0236L6.86119 15.0846L5.94053 15.7655L5.86242 15.8233L5.91792 15.9031C7.07083 17.5596 8.82067 18.6747 10.7786 18.999C11.1798 19.0659 11.5855 19.0997 11.9919 19.1H11.992C15.3677 19.0984 18.311 16.7695 19.1871 13.4392L20.124 14.4011L20.1956 14.4745L20.2672 14.4011L21.0716 13.5768L21.1396 13.507L21.0717 13.4372L18.6325 10.9303Z" fill="#DC975E" stroke="#DC975E" stroke-width="0.2"/>
</svg>
