<svg width="16" height="16" viewBox="0 0 16 16" fill="none" xmlns="http://www.w3.org/2000/svg">
<path fill-rule="evenodd" clip-rule="evenodd" d="M7.9991 0.733398C8.22748 0.733398 8.43605 0.863042 8.53713 1.06782L10.4577 4.95861L14.7525 5.58637C14.9785 5.6194 15.1661 5.7778 15.2365 5.995C15.3069 6.21221 15.248 6.45056 15.0844 6.60988L11.9771 9.63635L12.7105 13.912C12.7491 14.1371 12.6565 14.3646 12.4717 14.4988C12.287 14.6331 12.042 14.6508 11.8398 14.5444L7.9991 12.5246L4.15838 14.5444C3.95623 14.6508 3.71125 14.6331 3.52646 14.4988C3.34168 14.3646 3.24913 14.1371 3.28774 13.912L4.02106 9.63635L0.9138 6.60988C0.750229 6.45056 0.691265 6.21221 0.761692 5.995C0.832118 5.7778 1.01973 5.6194 1.24566 5.58637L5.54055 4.95861L7.46108 1.06782C7.56216 0.863042 7.77073 0.733398 7.9991 0.733398ZM7.9991 2.68895L6.47713 5.77231C6.3898 5.94921 6.22109 6.07189 6.02588 6.10042L2.62149 6.59803L5.08441 8.99692C5.22594 9.13476 5.29053 9.33344 5.25714 9.52816L4.67601 12.9164L7.71983 11.3157C7.89466 11.2237 8.10354 11.2237 8.27837 11.3157L11.3222 12.9164L10.7411 9.52816C10.7077 9.33344 10.7723 9.13476 10.9138 8.99692L13.3767 6.59803L9.97233 6.10042C9.77711 6.07189 9.6084 5.94921 9.52108 5.77231L7.9991 2.68895Z" fill="#3E3838"/>
</svg>
